<svg xmlns="http://www.w3.org/2000/svg" xmlns:xlink="http://www.w3.org/1999/xlink" version="1.1" id="layer" x="0px" y="0px" style="enable-background:new 0 0 652 652;" xml:space="preserve" viewBox="26.4 249.8 600 152">
<style type="text/css">
	.st0{fill:#D51007;}
</style>
<g id="g3">
	<path id="path5" class="st0" d="M160.5,389.9l-7.1-19.2c0,0-11.5,12.8-28.7,12.8c-15.2,0-26.1-13.3-26.1-34.5   c0-27.2,13.7-36.9,27.2-36.9c19.4,0,25.6,12.6,30.9,28.7l7.1,22.1c7.1,21.4,20.3,38.7,58.6,38.7c27.4,0,46-8.4,46-30.5   c0-17.9-10.2-27.2-29.2-31.6l-14.1-3.1c-9.7-2.2-12.6-6.2-12.6-12.8c0-7.5,6-11.9,15.7-11.9c10.6,0,16.4,4,17.2,13.5l22.1-2.7   c-1.8-19.9-15.5-28.1-38-28.1c-19.9,0-39.3,7.5-39.3,31.6c0,15,7.3,24.5,25.6,28.9l15,3.5c11.3,2.7,15,7.3,15,13.7   c0,8.2-8,11.5-23,11.5c-22.3,0-31.6-11.7-36.9-27.8l-7.3-22.1c-9.3-28.7-24.1-39.3-53.5-39.3c-32.5,0-49.7,20.5-49.7,55.5   c0,33.6,17.2,51.7,48.2,51.7C148.6,401.6,160.5,389.9,160.5,389.9L160.5,389.9z"/>
	<path id="path7" class="st0" d="M65.9,379.5c-2.2,0.7-4.4,1.1-7.3,1.1c-5.3,0-9.1-2.4-9.1-8.8V251.3H26.4v126   c0,16.6,11.5,23.4,25,23.4c4.4,0,8.6-0.7,13.9-2L65.9,379.5L65.9,379.5z"/>
	<path id="path9" class="st0" d="M345.5,375.9c-5.7,4-10.6,6-17.2,6c-8.4,0-13-4.4-13-15.2v-51.7h30.5v-18.1h-30.3v-24.5l-23.4,2.9   v21.7h-14.8v18.1H292v56.6c0,20.3,11.7,30.1,30.7,30.1c10.4,0,19.7-2,27-6.2L345.5,375.9L345.5,375.9z"/>
	<path id="path11" class="st0" d="M365.6,383.9c0,9.1,7.1,16.4,16.1,16.4c9.5,0,16.6-7.3,16.6-16.4c0-9.3-7.1-16.3-16.6-16.3   C372.7,367.5,365.6,374.6,365.6,383.9L365.6,383.9z"/>
	<path id="path13" class="st0" d="M422.3,314.9v84h23.2v-84h26.1v-18.1h-26.1v-9.3c0-13.9,6-18.3,15.7-18.3c6.9,0,11.5,1.5,16.8,4.4   l3.8-19.4c-6.2-2.9-13.5-4.4-22.3-4.4c-19.4,0-37.1,9.3-37.1,36.9v10.2h-14.8v18.1H422.3L422.3,314.9z"/>
	<path id="path15" class="st0" d="M564.1,316.9c-2.7-16.6-13.5-22.5-27.6-22.5c-14.1,0-26.3,6.4-31.6,22.1l-2.9-19.7h-18.8v102.1   h23.2v-57.7c0-19.7,10.2-27.2,21-27.2c11.3,0,15.9,7.5,15.9,19.7v65.2h23V341c0-19.4,10.4-27,21.2-27c11,0,15.7,7.5,15.7,19.7v65.2   h23.2v-73.4c0-21.9-12.8-31.2-29.8-31.2C582.2,294.4,569.4,300.8,564.1,316.9L564.1,316.9z"/>
</g>
</svg>